<svg id="Capa_1" enable-background="new 0 0 512 512" height="512" viewBox="0 0 512 512" width="512" xmlns="http://www.w3.org/2000/svg"><g><g><g><g><g><path d="m322.18 367.411v107.716h-132.356v-107.716h40.63v35.644c0 14.122 11.438 25.571 25.548 25.571 14.11 0 25.548-11.448 25.548-25.571v-35.644z" fill="#7a6e79"/><g fill="#685e67"><path d="m287.732 367.411h34.449v107.716h-34.449z"/><path d="m281.55 367.411h40.63v34.519h-40.63z"/><path d="m189.824 367.411h40.63v34.519h-40.63z"/></g><path d="m512 80.488v248.325h-306.427v-268.949h285.824c11.383 0 20.603 9.241 20.603 20.624z" fill="#f2eff2"/><path d="m349.468 249.283c-29.783 51.612-88.606 76.007-143.896 64.428v-253.847h83.805c3.678 1.7 7.314 3.585 10.889 5.645 64.284 37.149 86.309 119.419 49.202 183.774z" fill="#e1dde1"/><path d="m210.724 59.864v268.949h-210.724v-248.335c0-11.383 9.23-20.614 20.604-20.614z" fill="#23f1a8"/><path d="m210.724 59.864v254.815c-6.346-1.061-12.651-2.596-18.883-4.605l-10.807 18.739h-65.303l27.135-47.038c-46.028-41.609-58.463-111.084-26.198-167.023 14.433-25.033 35.696-43.659 60.07-54.888h33.986z" fill="#26d192"/><g><path d="m74.926 282.692h-29.338c-4.267 0-7.726-3.459-7.726-7.726s3.459-7.726 7.726-7.726h29.338c4.267 0 7.726 3.459 7.726 7.726s-3.459 7.726-7.726 7.726z" fill="#17998c"/></g><g><path d="m123.79 255.788h-78.202c-4.267 0-7.726-3.459-7.726-7.726s3.459-7.726 7.726-7.726h78.203c4.267 0 7.726 3.459 7.726 7.726 0 4.266-3.46 7.726-7.727 7.726z" fill="#17998c"/></g><path d="m512 80.488v248.325h-39.58v-248.325c0-11.383-9.22-20.624-20.604-20.624h39.58c11.384 0 20.604 9.241 20.604 20.624z" fill="#e1dde1"/><path d="m511.995 323.662v33.407c0 11.393-9.22 20.621-20.603 20.621h-470.789c-11.383 0-20.603-9.228-20.603-20.621v-33.407z" fill="#918291"/><path d="m183.999 323.662-31.163 54.028h-65.292l31.163-54.028z" fill="#7a6e79"/><path d="m512 323.662v33.407c0 11.393-9.22 20.621-20.603 20.621h-39.579c11.383 0 20.603-9.228 20.603-20.621v-33.407z" fill="#7a6e79"/><g><path d="m347.765 494.124h-183.525c-5.692 0-10.306-4.614-10.306-10.306v-14.264c0-5.692 4.614-10.306 10.306-10.306h183.525c5.692 0 10.306 4.614 10.306 10.306v14.264c0 5.692-4.614 10.306-10.306 10.306z" fill="#918291"/><path d="m358.072 469.559v14.26c0 5.692-4.615 10.311-10.302 10.311h-28.268c5.687 0 10.302-4.619 10.302-10.311v-14.26c0-5.691-4.615-10.311-10.302-10.311h28.268c5.687 0 10.302 4.619 10.302 10.311z" fill="#7a6e79"/></g></g></g></g><g><g><g><g><path d="m436.705 192.62h-97.918v-67.77c0-5.692 4.614-10.306 10.306-10.306h77.305c5.692 0 10.306 4.614 10.306 10.306v67.77z" fill="#9ce6fb"/><path d="m436.703 124.853v67.766h-29.399v-67.766c0-5.691-4.615-10.311-10.302-10.311h29.399c5.686.001 10.302 4.62 10.302 10.311z" fill="#68dbf9"/><path d="m426.404 220.434h-77.31c-5.692 0-10.306-4.614-10.306-10.306v-17.512c0-5.692 4.614-10.306 10.306-10.306h77.31c5.692 0 10.306 4.614 10.306 10.306v17.512c0 5.692-4.615 10.306-10.306 10.306z" fill="#21c1f8"/><path d="m436.705 192.62v17.508c0 5.692-4.605 10.311-10.302 10.311h-29.401c5.686 0 10.302-4.619 10.302-10.311v-17.508c0-5.692-4.615-10.311-10.302-10.311h29.401c5.697 0 10.302 4.619 10.302 10.311z" fill="#1faaee"/></g></g></g><g><g><path d="m431.054 260.792h-30.429c-4.267 0-7.726-3.459-7.726-7.726s3.459-7.726 7.726-7.726h30.429c4.267 0 7.726 3.459 7.726 7.726.001 4.266-3.459 7.726-7.726 7.726z" fill="#cecece"/></g><g><path d="m431.054 287.723h-58.244c-4.267 0-7.726-3.459-7.726-7.726s3.459-7.726 7.726-7.726h58.244c4.267 0 7.726 3.459 7.726 7.726s-3.459 7.726-7.726 7.726z" fill="#cecece"/></g></g></g><g><g><path d="m215.205 214.236-128.793 223.282-48.986-28.289 128.804-223.292z" fill="#7a6e79"/><path d="m215.205 214.247-128.804 223.271-29.37-16.967 128.793-223.282z" fill="#685e67"/><path d="m41.851 401.558-13.465 23.342c-2.845 4.932-1.157 11.237 3.771 14.085l31.131 17.989c4.927 2.847 11.228 1.158 14.072-3.774l13.465-23.342z" fill="#f2eff2"/></g><g><g><g><ellipse cx="218.215" cy="152.417" fill="#918291" rx="134.406" ry="134.523"/><g><path d="m334.613 219.683c-37.112 64.336-119.314 86.389-183.603 49.239-10.144-5.862-19.241-12.857-27.22-20.718 61.6 32.655 138.454 10.881 173.594-50.034 35.134-60.907 15.565-138.4-43.477-175.47 10.788 2.972 21.375 7.363 31.51 13.22 64.289 37.149 86.313 119.418 49.196 183.763z" fill="#7a6e79"/></g></g></g><g><g><ellipse cx="218.216" cy="152.417" fill="#918291" rx="100.125" ry="100.213"/><ellipse cx="218.216" cy="152.417" fill="#c9f0fd" rx="100.125" ry="100.213"/></g><g><path d="m304.923 202.526c-27.645 47.924-88.879 64.353-136.77 36.679-8.395-4.851-15.824-10.739-22.217-17.41 44.567 19.538 97.627 2.802 122.516-40.344 24.899-43.164 12.837-97.543-26.376-126.382 8.983 2.203 17.801 5.703 26.205 10.559 47.89 27.674 64.292 88.966 36.642 136.898z" fill="#9ce6fb"/></g></g></g></g><g><g><g fill="#b5adb6"><path d="m200.302 145.62c4.14-1.033 6.659-5.226 5.626-9.367l-8.835-35.41c-.859-3.441-3.95-5.856-7.496-5.856h-20.69c-4.267 0-7.726 3.459-7.726 7.726s3.459 7.726 7.726 7.726h14.654l7.374 29.554c.876 3.513 4.027 5.858 7.49 5.858.62.001 1.249-.074 1.877-.231z"/><path d="m285.708 187.071c0-4.267-3.459-7.726-7.726-7.726h-65.057v-14.095c0-4.267-3.459-7.726-7.726-7.726s-7.726 3.459-7.726 7.726v16.182c0 2.17.531 4.215 1.453 6.029-2.64 3.443-4.228 7.735-4.228 12.4 0 11.267 9.161 20.433 20.422 20.433s20.422-9.167 20.422-20.433c0-1.75-.245-3.441-.661-5.063h7.548c-.416 1.623-.661 3.313-.661 5.063 0 11.267 9.161 20.433 20.422 20.433s20.422-9.167 20.422-20.433c0-2.095-.319-4.116-.907-6.02 2.386-1.316 4.003-3.853 4.003-6.77zm-70.589 17.77c-2.74 0-4.969-2.234-4.969-4.98s2.229-4.98 4.969-4.98 4.969 2.234 4.969 4.98-2.229 4.98-4.969 4.98zm47.071 0c-2.74 0-4.969-2.234-4.969-4.98s2.229-4.98 4.969-4.98 4.969 2.234 4.969 4.98-2.229 4.98-4.969 4.98z"/></g><g><path d="m282.121 126.621-6.477 30.857c-.951 4.531-4.947 7.776-9.577 7.776h-65.091c-2.365 0-4.425-1.61-4.998-3.904l-8.539-34.231c-.811-3.25 1.648-6.398 4.998-6.398h84.894c3.108 0 5.429 2.859 4.79 5.9z" fill="#fb3a82"/></g><g><path d="m282.117 126.628-6.47 30.847c-.949 4.536-4.952 7.778-9.582 7.778h-22.863c4.629 0 8.623-3.242 9.572-7.778l6.479-30.847c.636-3.047-1.683-5.907-4.786-5.907h22.863c3.113 0 5.433 2.861 4.787 5.907z" fill="#fb1466"/></g></g></g></g></g></svg>